# Blender v3.2.1 OBJ File: 'Plant.blend'
# www.blender.org
mtllib Fern1.mtl
o Cylinder
v 0.000000 -1.000000 -1.000000
v 0.000000 1.000000 -1.000000
v 0.707107 -1.000000 -0.707107
v 0.707107 1.000000 -0.707107
v 1.000000 -1.000000 0.000000
v 1.000000 1.000000 0.000000
v 0.707107 -1.000000 0.707107
v 0.707107 1.000000 0.707107
v -0.000000 -1.000000 1.000000
v -0.000000 1.000000 1.000000
v -0.707107 -1.000000 0.707107
v -0.707107 1.000000 0.707107
v -1.000000 -1.000000 -0.000000
v -1.000000 1.000000 -0.000000
v -0.707107 -1.000000 -0.707107
v -0.707107 1.000000 -0.707107
vt 1.000000 0.500000
vt 1.000000 1.000000
vt 0.875000 1.000000
vt 0.875000 0.500000
vt 0.750000 1.000000
vt 0.750000 0.500000
vt 0.625000 1.000000
vt 0.625000 0.500000
vt 0.500000 1.000000
vt 0.500000 0.500000
vt 0.375000 1.000000
vt 0.375000 0.500000
vt 0.250000 1.000000
vt 0.250000 0.500000
vt 0.419706 0.419706
vt 0.250000 0.490000
vt 0.080294 0.419706
vt 0.010000 0.250000
vt 0.080294 0.080294
vt 0.250000 0.010000
vt 0.419706 0.080294
vt 0.490000 0.250000
vt 0.125000 1.000000
vt 0.125000 0.500000
vt 0.000000 1.000000
vt 0.000000 0.500000
vt 0.750000 0.490000
vt 0.919706 0.419706
vt 0.990000 0.250000
vt 0.919706 0.080294
vt 0.750000 0.010000
vt 0.580294 0.080294
vt 0.510000 0.250000
vt 0.580294 0.419706
vn 0.3827 0.0000 -0.9239
vn 0.9239 0.0000 -0.3827
vn 0.9239 0.0000 0.3827
vn 0.3827 0.0000 0.9239
vn -0.3827 0.0000 0.9239
vn -0.9239 0.0000 0.3827
vn 0.0000 1.0000 -0.0000
vn -0.9239 0.0000 -0.3827
vn -0.3827 0.0000 -0.9239
vn 0.0000 -1.0000 0.0000
g Cylinder_Cylinder_Material.002
usemtl Material.002
s off
f 1/1/1 2/2/1 4/3/1 3/4/1
f 3/4/2 4/3/2 6/5/2 5/6/2
f 5/6/3 6/5/3 8/7/3 7/8/3
f 7/8/4 8/7/4 10/9/4 9/10/4
f 9/10/5 10/9/5 12/11/5 11/12/5
f 11/12/6 12/11/6 14/13/6 13/14/6
f 4/15/7 2/16/7 16/17/7 14/18/7 12/19/7 10/20/7 8/21/7 6/22/7
f 13/14/8 14/13/8 16/23/8 15/24/8
f 15/24/9 16/23/9 2/25/9 1/26/9
f 1/27/10 3/28/10 5/29/10 7/30/10 9/31/10 11/32/10 13/33/10 15/34/10
o leaves_Cube.002
v -0.337296 1.131268 1.074567
v -0.535056 1.475593 1.048439
v -2.707897 -0.254031 0.761367
v -2.905657 0.090294 0.735239
v -0.075336 1.131268 -0.908203
v -0.273096 1.475593 -0.934331
v -2.445937 -0.254031 -1.221403
v -2.643697 0.090294 -1.247531
v -0.764823 1.129085 -0.829724
v -0.644406 1.474113 -0.987228
v 0.701799 -0.247744 -2.724522
v 0.822216 0.097283 -2.882026
v 0.818557 1.134236 0.392111
v 0.938974 1.479263 0.234607
v 2.285179 -0.242594 -1.502687
v 2.405596 0.102434 -1.660191
v 1.096779 1.134001 -0.243617
v 1.171109 1.479118 -0.059986
v 2.005175 -0.241748 1.974272
v 2.079506 0.103370 2.157903
v -0.754769 1.130448 0.512531
v -0.680438 1.475565 0.696162
v 0.153628 -0.245300 2.730420
v 0.227958 0.099817 2.914051
vt 0.375000 0.000000
vt 0.625000 0.000000
vt 0.625000 0.250000
vt 0.375000 0.250000
vt 0.625000 0.500000
vt 0.375000 0.500000
vt 0.625000 0.750000
vt 0.375000 0.750000
vt 0.625000 1.000000
vt 0.375000 1.000000
vt 0.125000 0.500000
vt 0.125000 0.750000
vt 0.875000 0.500000
vt 0.875000 0.750000
vt 0.375000 0.000000
vt 0.625000 0.000000
vt 0.625000 0.250000
vt 0.375000 0.250000
vt 0.625000 0.500000
vt 0.375000 0.500000
vt 0.625000 0.750000
vt 0.375000 0.750000
vt 0.625000 1.000000
vt 0.375000 1.000000
vt 0.125000 0.500000
vt 0.125000 0.750000
vt 0.875000 0.500000
vt 0.875000 0.750000
vt 0.375000 0.000000
vt 0.625000 0.000000
vt 0.625000 0.250000
vt 0.375000 0.250000
vt 0.625000 0.500000
vt 0.375000 0.500000
vt 0.625000 0.750000
vt 0.375000 0.750000
vt 0.625000 1.000000
vt 0.375000 1.000000
vt 0.125000 0.500000
vt 0.125000 0.750000
vt 0.875000 0.500000
vt 0.875000 0.750000
vn -0.1310 0.0000 0.9914
vn -0.8578 -0.5013 -0.1133
vn 0.1310 -0.0000 -0.9914
vn 0.8578 0.5013 0.1133
vn 0.4970 -0.8653 0.0657
vn -0.4970 0.8653 -0.0657
vn -0.7917 -0.0026 -0.6109
vn 0.5307 -0.4982 -0.6857
vn 0.7917 0.0026 0.6109
vn -0.5307 0.4982 0.6857
vn -0.3026 -0.8670 0.3958
vn 0.3026 0.8670 -0.3958
vn 0.9258 0.0018 -0.3781
vn 0.3287 -0.4978 0.8026
vn -0.9258 -0.0018 0.3781
vn -0.3287 0.4978 -0.8026
vn -0.1868 -0.8673 -0.4615
vn 0.1868 0.8673 0.4615
g leaves_Cube.002_Material.001
usemtl Material.001
s off
f 17/35/11 18/36/11 20/37/11 19/38/11
f 19/38/12 20/37/12 24/39/12 23/40/12
f 23/40/13 24/39/13 22/41/13 21/42/13
f 21/42/14 22/41/14 18/43/14 17/44/14
f 19/45/15 23/40/15 21/42/15 17/46/15
f 24/39/16 20/47/16 18/48/16 22/41/16
f 25/49/17 26/50/17 28/51/17 27/52/17
f 27/52/18 28/51/18 32/53/18 31/54/18
f 31/54/19 32/53/19 30/55/19 29/56/19
f 29/56/20 30/55/20 26/57/20 25/58/20
f 27/59/21 31/54/21 29/56/21 25/60/21
f 32/53/22 28/61/22 26/62/22 30/55/22
f 33/63/23 34/64/23 36/65/23 35/66/23
f 35/66/24 36/65/24 40/67/24 39/68/24
f 39/68/25 40/67/25 38/69/25 37/70/25
f 37/70/26 38/69/26 34/71/26 33/72/26
f 35/73/27 39/68/27 37/70/27 33/74/27
f 40/67/28 36/75/28 34/76/28 38/69/28
