# Blender 3.3.1
# www.blender.org
mtllib Flashlight.mtl
o Cube
v -2.000000 0.500000 -0.500000
v -2.000000 -0.500000 -0.500000
v -2.000000 0.500000 0.500000
v -2.000000 -0.500000 0.500000
v 2.000000 0.500000 -0.500000
v 2.000000 -0.500000 -0.500000
v 2.000000 0.500000 0.500000
v 2.000000 -0.500000 0.500000
v -3.747126 0.964006 -0.964006
v -3.747126 -0.964006 -0.964006
v -3.747126 0.964006 0.964006
v -3.747126 -0.964006 0.964006
v -2.665456 0.357071 -0.357071
v -2.665456 -0.357071 -0.357071
v -2.665456 0.357071 0.357071
v -2.665456 -0.357071 0.357071
vn -0.0000 1.0000 -0.0000
vn -0.0000 -0.0000 1.0000
vn 1.0000 -0.0000 -0.0000
vn -0.0000 -1.0000 -0.0000
vn 0.2567 -0.0000 0.9665
vn -0.0000 -0.0000 -1.0000
vn -0.4893 -0.8721 -0.0000
vn 0.2567 -0.0000 -0.9665
vn 0.2567 -0.9665 -0.0000
vn 0.2567 0.9665 -0.0000
vn -1.0000 -0.0000 -0.0000
vn -0.4893 -0.0000 0.8721
vn -0.4893 0.8721 -0.0000
vn -0.4893 -0.0000 -0.8721
vt 0.625000 0.500000
vt 0.375000 0.500000
vt 0.625000 0.750000
vt 0.375000 0.750000
vt 0.875000 0.500000
vt 0.625000 0.250000
vt 0.125000 0.500000
vt 0.375000 0.250000
vt 0.875000 0.750000
vt 0.625000 1.000000
vt 0.625000 0.000000
vt 0.375000 1.000000
vt 0.375000 0.000000
vt 0.125000 0.750000
vt 0.625000 0.500000
vt 0.375000 0.500000
vt 0.625000 0.750000
vt 0.375000 0.750000
vt 0.625000 0.500000
vt 0.375000 0.500000
vt 0.625000 0.750000
vt 0.375000 0.750000
s 0
usemtl Material
f 1/1/1 3/3/1 7/9/1 5/5/1
f 4/4/2 8/12/2 7/10/2 3/3/2
f 8/13/3 6/8/3 5/6/3 7/11/3
f 6/7/4 8/14/4 4/4/4 2/2/4
f 3/3/5 11/17/5 12/18/5 4/4/5
f 6/8/6 2/2/6 1/1/6 5/6/6
f 9/15/7 13/19/7 15/21/7 11/17/7
f 2/2/8 10/16/8 9/15/8 1/1/8
f 4/4/9 12/18/9 10/16/9 2/2/9
f 1/1/10 9/15/10 11/17/10 3/3/10
f 14/20/11 16/22/11 15/21/11 13/19/11
f 10/16/12 14/20/12 13/19/12 9/15/12
f 12/18/13 16/22/13 14/20/13 10/16/13
f 11/17/14 15/21/14 16/22/14 12/18/14
